<?xml version="1.0" encoding="UTF-8"?>
<!DOCTYPE svg PUBLIC "-//W3C//DTD SVG 1.0//EN" "http://www.w3.org/TR/2001/REC-SVG-20010904/DTD/svg10.dtd">
<!-- Creator: CorelDRAW -->
<svg xmlns="http://www.w3.org/2000/svg" xml:space="preserve" width="2219px" height="1952px" version="1.0" shape-rendering="geometricPrecision" text-rendering="geometricPrecision" image-rendering="optimizeQuality" fill-rule="evenodd" clip-rule="evenodd"
viewBox="0 0 2219 1951.96"
 xmlns:xlink="http://www.w3.org/1999/xlink"
 xmlns:xodm="http://www.corel.com/coreldraw/odm/2003">
 <g id="Layer_x0020_1">
  <metadata id="CorelCorpID_0Corel-Layer"/>
  <line id="line2794" fill="none" stroke="white" stroke-width="4.48" stroke-linecap="round" stroke-linejoin="round" stroke-miterlimit="22.9256" x1="2.24" y1="3.38" x2="2.24" y2= "1949.72" />
  <line id="line2796" fill="none" stroke="white" stroke-width="4.48" stroke-linecap="round" stroke-linejoin="round" stroke-miterlimit="22.9256" x1="445.02" y1="3.38" x2="445.02" y2= "1948.41" />
  <line id="line2798" fill="none" stroke="white" stroke-width="4.27" stroke-linecap="round" stroke-linejoin="round" stroke-miterlimit="22.9256" x1="888.11" y1="3.2" x2="888.11" y2= "1772.66" />
  <line id="line2800" fill="none" stroke="white" stroke-width="4.48" stroke-linecap="round" stroke-linejoin="round" stroke-miterlimit="22.9256" x1="2216.76" y1="1949.72" x2="2216.76" y2= "3.38" />
  <line id="line2802" fill="none" stroke="white" stroke-width="4.37" stroke-linecap="square" stroke-linejoin="round" stroke-miterlimit="22.9256" x1="2.22" y1="1862.45" x2="622.19" y2= "1862.45" />
  <line id="line2802-8" fill="none" stroke="white" stroke-width="4.37" stroke-linecap="square" stroke-linejoin="round" stroke-miterlimit="22.9256" x1="1596.57" y1="1862.98" x2="2215.46" y2= "1862.98" />
  <line id="line2806" fill="none" stroke="white" stroke-width="4.37" stroke-linecap="round" stroke-linejoin="round" stroke-miterlimit="22.9256" x1="3.75" y1="1419.65" x2="2216.81" y2= "1419.65" />
  <line id="line2808" fill="none" stroke="white" stroke-width="4.37" stroke-linecap="round" stroke-linejoin="round" stroke-miterlimit="22.9256" x1="3.75" y1="976.85" x2="2216.81" y2= "976.85" />
  <line id="line2810" fill="none" stroke="white" stroke-width="4.37" stroke-linecap="round" stroke-linejoin="round" stroke-miterlimit="22.9256" x1="3.75" y1="533.73" x2="2216.81" y2= "533.73" />
  <line id="line2812" fill="none" stroke="white" stroke-width="4.37" stroke-linecap="round" stroke-linejoin="round" stroke-miterlimit="22.9256" x1="3.75" y1="90.94" x2="2216.81" y2= "90.94" />
  <line id="line2814" fill="none" stroke="white" stroke-width="4.37" stroke-linecap="round" stroke-linejoin="round" stroke-miterlimit="22.9256" x1="2216.81" y1="2.19" x2="2.19" y2= "2.19" />
  <line id="line2816" fill="none" stroke="white" stroke-width="4.66" stroke-linecap="round" stroke-linejoin="round" stroke-miterlimit="22.9256" x1="1330.97" y1="3.58" x2="1330.97" y2= "1772.17" />
  <line id="line2820" fill="none" stroke="white" stroke-width="4.88" stroke-linecap="round" stroke-linejoin="round" stroke-miterlimit="22.9256" x1="1773.8" y1="3.91" x2="1773.8" y2= "1946.06" />
  <line id="line2826" fill="none" stroke="white" stroke-width="1.28" stroke-linecap="round" stroke-linejoin="round" stroke-miterlimit="22.9256" x1="268.16" y1="3.38" x2="268.16" y2= "1949.39" />
  <line id="line2828" fill="none" stroke="white" stroke-width="1.28" stroke-linecap="round" stroke-linejoin="round" stroke-miterlimit="22.9256" x1="356.59" y1="3.38" x2="356.59" y2= "1949.39" />
  <line id="line2830" fill="none" stroke="white" stroke-width="1.28" stroke-linecap="round" stroke-linejoin="round" stroke-miterlimit="22.9256" x1="533.76" y1="3.38" x2="533.76" y2= "1949.39" />
  <line id="line2832" fill="none" stroke="white" stroke-width="1.28" stroke-linecap="round" stroke-linejoin="round" stroke-miterlimit="22.9256" x1="622.19" y1="3.38" x2="622.19" y2= "1949.39" />
  <line id="line2834" fill="none" stroke="white" stroke-width="1.28" stroke-linecap="round" stroke-linejoin="round" stroke-miterlimit="22.9256" x1="710.94" y1="3.38" x2="710.94" y2= "1774.01" />
  <line id="line2836" fill="none" stroke="white" stroke-width="1.22" stroke-linecap="round" stroke-linejoin="round" stroke-miterlimit="22.9256" x1="799.37" y1="3.32" x2="799.37" y2= "1773.49" />
  <line id="line2838" fill="none" stroke="white" stroke-width="1.22" stroke-linecap="round" stroke-linejoin="round" stroke-miterlimit="22.9256" x1="976.46" y1="3.26" x2="976.46" y2= "1773.65" />
  <line id="line2840" fill="none" stroke="white" stroke-width="1.22" stroke-linecap="round" stroke-linejoin="round" stroke-miterlimit="22.9256" x1="1065.25" y1="3.26" x2="1065.25" y2= "1773.65" />
  <line id="line2842" fill="none" stroke="white" stroke-width="1.28" stroke-linecap="round" stroke-linejoin="round" stroke-miterlimit="22.9256" x1="2128.02" y1="3.38" x2="2128.02" y2= "1949.39" />
  <line id="line2844" fill="none" stroke="white" stroke-width="1.28" stroke-linecap="round" stroke-linejoin="round" stroke-miterlimit="22.9256" x1="90.98" y1="3.38" x2="90.98" y2= "1949.39" />
  <line id="line2846" fill="none" stroke="white" stroke-width="1.28" stroke-linecap="round" stroke-linejoin="round" stroke-miterlimit="22.9256" x1="179.41" y1="3.38" x2="179.41" y2= "1949.39" />
  <line id="line2848" fill="none" stroke="white" stroke-width="1.25" stroke-linecap="round" stroke-linejoin="round" stroke-miterlimit="22.9256" x1="4.69" y1="1508.08" x2="2216.81" y2= "1508.08" />
  <line id="line2850" fill="none" stroke="white" stroke-width="1.25" stroke-linecap="round" stroke-linejoin="round" stroke-miterlimit="22.9256" x1="4.69" y1="1596.83" x2="2216.81" y2= "1596.83" />
  <line id="line2852" fill="none" stroke="white" stroke-width="1.25" stroke-linecap="round" stroke-linejoin="round" stroke-miterlimit="22.9256" x1="4.69" y1="1685.26" x2="2216.81" y2= "1685.26" />
  <line id="line2854" fill="none" stroke="white" stroke-width="1.25" stroke-linecap="round" stroke-linejoin="round" stroke-miterlimit="22.9256" x1="4.69" y1="1774.01" x2="2216.81" y2= "1774.01" />
  <line id="line2854-7" fill="none" stroke="white" stroke-width="4.37" stroke-linecap="round" stroke-linejoin="round" stroke-miterlimit="22.9256" x1="4.69" y1="1949.63" x2="2216.81" y2= "1949.63" />
  <line id="line2856" fill="none" stroke="white" stroke-width="1.25" stroke-linecap="round" stroke-linejoin="round" stroke-miterlimit="22.9256" x1="4.69" y1="1330.9" x2="2216.81" y2= "1330.9" />
  <line id="line2858" fill="none" stroke="white" stroke-width="1.25" stroke-linecap="round" stroke-linejoin="round" stroke-miterlimit="22.9256" x1="4.69" y1="1242.46" x2="2216.81" y2= "1242.46" />
  <line id="line2860" fill="none" stroke="white" stroke-width="1.25" stroke-linecap="round" stroke-linejoin="round" stroke-miterlimit="22.9256" x1="4.69" y1="1153.72" x2="2216.81" y2= "1153.72" />
  <line id="line2862" fill="none" stroke="white" stroke-width="1.25" stroke-linecap="round" stroke-linejoin="round" stroke-miterlimit="22.9256" x1="4.69" y1="1065.28" x2="2216.81" y2= "1065.28" />
  <line id="line2864" fill="none" stroke="white" stroke-width="1.25" stroke-linecap="round" stroke-linejoin="round" stroke-miterlimit="22.9256" x1="4.69" y1="888.1" x2="2216.81" y2= "888.1" />
  <line id="line2866" fill="none" stroke="white" stroke-width="1.25" stroke-linecap="round" stroke-linejoin="round" stroke-miterlimit="22.9256" x1="4.69" y1="799.35" x2="2216.81" y2= "799.35" />
  <line id="line2868" fill="none" stroke="white" stroke-width="1.25" stroke-linecap="round" stroke-linejoin="round" stroke-miterlimit="22.9256" x1="4.69" y1="710.92" x2="2216.81" y2= "710.92" />
  <line id="line2870" fill="none" stroke="white" stroke-width="1.25" stroke-linecap="round" stroke-linejoin="round" stroke-miterlimit="22.9256" x1="4.69" y1="622.48" x2="2216.81" y2= "622.48" />
  <line id="line2872" fill="none" stroke="white" stroke-width="1.25" stroke-linecap="round" stroke-linejoin="round" stroke-miterlimit="22.9256" x1="4.69" y1="445.3" x2="2216.81" y2= "445.3" />
  <line id="line2874" fill="none" stroke="white" stroke-width="1.25" stroke-linecap="round" stroke-linejoin="round" stroke-miterlimit="22.9256" x1="4.69" y1="356.55" x2="2216.81" y2= "356.55" />
  <line id="line2876" fill="none" stroke="white" stroke-width="1.25" stroke-linecap="round" stroke-linejoin="round" stroke-miterlimit="22.9256" x1="4.69" y1="268.12" x2="2216.81" y2= "268.12" />
  <line id="line2878" fill="none" stroke="white" stroke-width="1.25" stroke-linecap="round" stroke-linejoin="round" stroke-miterlimit="22.9256" x1="4.69" y1="179.37" x2="2216.81" y2= "179.37" />
  <line id="line2880" fill="none" stroke="white" stroke-width="1.3" stroke-linecap="round" stroke-linejoin="round" stroke-miterlimit="22.9256" x1="1153.72" y1="3.34" x2="1153.72" y2= "1773.65" />
  <line id="line2884" fill="none" stroke="white" stroke-width="1.33" stroke-linecap="round" stroke-linejoin="round" stroke-miterlimit="22.9256" x1="1242.5" y1="3.38" x2="1242.5" y2= "1773.88" />
  <line id="line2888" fill="none" stroke="white" stroke-width="1.33" stroke-linecap="round" stroke-linejoin="round" stroke-miterlimit="22.9256" x1="1419.26" y1="3.3" x2="1419.26" y2= "1773.04" />
  <line id="line2892" fill="none" stroke="white" stroke-width="1.4" stroke-linecap="round" stroke-linejoin="round" stroke-miterlimit="22.9256" x1="1508.12" y1="3.49" x2="1508.12" y2= "1774.01" />
  <line id="line2896" fill="none" stroke="white" stroke-width="1.4" stroke-linecap="round" stroke-linejoin="round" stroke-miterlimit="22.9256" x1="1596.57" y1="3.49" x2="1596.57" y2= "1948.19" />
  <line id="line2900" fill="none" stroke="white" stroke-width="1.4" stroke-linecap="round" stroke-linejoin="round" stroke-miterlimit="22.9256" x1="1685.33" y1="3.49" x2="1685.33" y2= "1948.19" />
  <line id="line2904" fill="none" stroke="white" stroke-width="1.4" stroke-linecap="round" stroke-linejoin="round" stroke-miterlimit="22.9256" x1="1862.3" y1="3.61" x2="1862.3" y2= "1947.95" />
  <line id="line2906" fill="none" stroke="white" stroke-width="1.4" stroke-linecap="round" stroke-linejoin="round" stroke-miterlimit="22.9256" x1="1950.78" y1="3.61" x2="1950.78" y2= "1947.95" />
  <line id="line2908" fill="none" stroke="white" stroke-width="1.37" stroke-linecap="round" stroke-linejoin="round" stroke-miterlimit="22.9256" x1="2039.59" y1="3.47" x2="2039.59" y2= "1948.43" />
  <path fill="white" d="M1473.54 1834.49l11.7 0 0 22.06 20.8 -22.06 14.61 0 -20.8 21.02 22.81 32.2 -14.68 0 -16.03 -23.93 -6.71 6.79 0 17.14 -11.7 0 0 -53.22zm-33.92 32.65l13.79 0 -6.71 -19.53 -0.15 0 -6.93 19.53zm1.12 -32.65l12 0 19.9 53.22 -12.15 0 -4.02 -11.85 -19.91 0 -4.17 11.85 -11.85 0 20.2 -53.22zm-59.41 26.83c0,2.24 0.26,4.42 0.78,6.53 0.52,2.11 1.35,4.01 2.5,5.7 1.14,1.69 2.63,3.04 4.47,4.06 1.84,1.02 4.07,1.53 6.71,1.53 2.63,0 4.87,-0.51 6.71,-1.53 1.84,-1.02 3.33,-2.37 4.47,-4.06 1.14,-1.69 1.97,-3.59 2.5,-5.7 0.52,-2.11 0.78,-4.29 0.78,-6.53 0,-2.33 -0.26,-4.59 -0.78,-6.78 -0.52,-2.19 -1.36,-4.14 -2.5,-5.85 -1.14,-1.72 -2.63,-3.08 -4.47,-4.1 -1.84,-1.02 -4.08,-1.53 -6.71,-1.53 -2.64,0 -4.87,0.51 -6.71,1.53 -1.84,1.02 -3.33,2.38 -4.47,4.1 -1.15,1.71 -1.98,3.66 -2.5,5.85 -0.52,2.19 -0.78,4.45 -0.78,6.78zm-11.71 0c0,-3.92 0.6,-7.6 1.79,-11.03 1.2,-3.43 2.91,-6.41 5.15,-8.94 2.23,-2.54 4.97,-4.52 8.2,-5.97 3.23,-1.44 6.9,-2.16 11.03,-2.16 4.12,0 7.8,0.72 11.03,2.16 3.23,1.45 5.96,3.43 8.2,5.97 2.24,2.53 3.95,5.51 5.14,8.94 1.2,3.43 1.79,7.11 1.79,11.03 0,3.83 -0.59,7.43 -1.79,10.81 -1.19,3.38 -2.9,6.31 -5.14,8.8 -2.24,2.48 -4.97,4.45 -8.2,5.89 -3.23,1.44 -6.91,2.16 -11.03,2.16 -4.13,0 -7.8,-0.72 -11.03,-2.16 -3.23,-1.44 -5.97,-3.41 -8.2,-5.89 -2.24,-2.49 -3.95,-5.42 -5.15,-8.8 -1.19,-3.38 -1.79,-6.98 -1.79,-10.81zm-59.26 -26.83l39.81 0 0 9.84 -28.1 0 0 11.4 25.79 0 0 9.1 -25.79 0 0 13.04 28.7 0 0 9.84 -40.41 0 0 -53.22zm-38.39 24.08l12.83 0c2.63,0 4.63,-0.6 6,-1.79 1.36,-1.2 2.05,-3.13 2.05,-5.82 0,-2.58 -0.69,-4.46 -2.05,-5.63 -1.37,-1.16 -3.37,-1.75 -6,-1.75l-12.83 0 0 14.99zm-11.7 -24.08l28.7 0c2.39,0 4.53,0.38 6.45,1.15 1.91,0.78 3.55,1.83 4.92,3.17 1.36,1.34 2.41,2.91 3.13,4.7 0.72,1.79 1.08,3.68 1.08,5.66 0,3.13 -0.66,5.84 -1.98,8.13 -1.31,2.29 -3.46,4.02 -6.44,5.22l0 0.15c1.44,0.4 2.63,1 3.57,1.82 0.95,0.82 1.72,1.8 2.32,2.95 0.59,1.14 1.03,2.37 1.3,3.69 0.27,1.31 0.46,2.64 0.56,3.99 0.05,0.84 0.1,1.83 0.15,2.98 0.05,1.14 0.13,2.3 0.26,3.46 0.12,1.17 0.32,2.3 0.59,3.39 0.28,1.1 0.69,2.02 1.23,2.76l-11.7 0c-0.35,-0.84 -0.61,-1.77 -0.78,-2.79 -0.18,-1.02 -0.33,-2.09 -0.45,-3.21 -0.12,-1.12 -0.22,-2.26 -0.3,-3.43 -0.07,-1.16 -0.18,-2.27 -0.33,-3.31 -0.4,-2.79 -1.24,-4.82 -2.54,-6.12 -1.29,-1.29 -3.4,-1.93 -6.33,-1.93l-11.71 0 0 20.79 -11.7 0 0 -53.22zm-6.34 33.1c0,7.2 -2.01,12.57 -6.03,16.1 -4.03,3.53 -9.59,5.29 -16.7,5.29 -7.21,0 -12.78,-1.75 -16.74,-5.26 -3.95,-3.5 -5.92,-8.88 -5.92,-16.13l0 -33.1 11.7 0 0 33.1c0,1.44 0.12,2.85 0.37,4.25 0.25,1.39 0.77,2.63 1.57,3.72 0.79,1.1 1.9,1.97 3.32,2.61 1.41,0.65 3.31,0.97 5.7,0.97 4.17,0 7.06,-0.93 8.65,-2.79 1.59,-1.87 2.38,-4.79 2.38,-8.76l0 -33.1 11.7 0 0 33.1zm-75.21 -23.26l-15.95 0 0 -9.84 43.61 0 0 9.84 -15.95 0 0 43.38 -11.71 0 0 -43.38zm-40.18 22.81l13.79 0 -6.71 -19.53 -0.14 0 -6.94 19.53zm1.12 -32.65l12 0 19.91 53.22 -12.16 0 -4.02 -11.85 -19.9 0 -4.18 11.85 -11.85 0 20.2 -53.22zm-66.04 0l11.63 0 22.21 35.71 0.15 0 0 -35.71 10.95 0 0 53.22 -11.7 0 -22.14 -35.63 -0.15 0 0 35.63 -10.95 0 0 -53.22zm-14.39 47.18c-2.09,2.69 -4.4,4.58 -6.93,5.67 -2.54,1.09 -5.1,1.64 -7.68,1.64 -4.13,0 -7.8,-0.72 -11.03,-2.16 -3.23,-1.44 -5.97,-3.41 -8.2,-5.89 -2.24,-2.49 -3.95,-5.42 -5.15,-8.8 -1.19,-3.38 -1.78,-6.98 -1.78,-10.81 0,-3.92 0.59,-7.6 1.78,-11.03 1.2,-3.43 2.91,-6.41 5.15,-8.94 2.23,-2.54 4.97,-4.52 8.2,-5.97 3.23,-1.44 6.9,-2.16 11.03,-2.16 2.73,0 5.38,0.41 7.94,1.23 2.56,0.82 4.85,2.03 6.89,3.62 2.04,1.59 3.74,3.55 5.11,5.89 1.37,2.33 2.2,5.02 2.5,8.05l-11.18 0c-0.7,-2.99 -2.05,-5.22 -4.07,-6.71 -2.01,-1.49 -4.41,-2.24 -7.19,-2.24 -2.64,0 -4.87,0.51 -6.71,1.53 -1.84,1.02 -3.33,2.38 -4.47,4.1 -1.15,1.71 -1.98,3.66 -2.5,5.85 -0.52,2.19 -0.78,4.45 -0.78,6.78 0,2.24 0.26,4.42 0.78,6.53 0.52,2.11 1.35,4.01 2.5,5.7 1.14,1.69 2.63,3.04 4.47,4.06 1.84,1.02 4.07,1.53 6.71,1.53 3.83,0 6.81,-0.98 8.94,-2.94 2.14,-1.97 3.38,-4.81 3.73,-8.54l-11.78 0 0 -8.72 22.37 0 0 28.77 -7.46 0 -1.19 -6.04zm-56.73 -47.18l11.71 0 0 53.22 -11.71 0 0 -53.22zm-36.67 35.56c0,1.79 0.32,3.3 0.97,4.54 0.64,1.25 1.5,2.25 2.57,3.02 1.07,0.77 2.31,1.34 3.73,1.72 1.41,0.37 2.91,0.56 4.51,0.56 1.04,0 2.16,-0.09 3.35,-0.27 1.19,-0.17 2.31,-0.5 3.36,-1 1.04,-0.5 1.91,-1.18 2.6,-2.05 0.7,-0.87 1.05,-1.98 1.05,-3.32 0,-1.44 -0.46,-2.61 -1.38,-3.5 -0.92,-0.9 -2.13,-1.65 -3.62,-2.28 -1.49,-0.62 -3.18,-1.14 -5.07,-1.56 -1.89,-0.42 -3.8,-0.91 -5.74,-1.45 -1.98,-0.5 -3.92,-1.11 -5.81,-1.83 -1.89,-0.72 -3.58,-1.65 -5.07,-2.8 -1.49,-1.14 -2.69,-2.55 -3.61,-4.25 -0.92,-1.68 -1.38,-3.77 -1.38,-6.26 0,-2.73 0.58,-5.1 1.75,-7.12 1.17,-2.01 2.7,-3.69 4.58,-5.03 1.89,-1.34 4.03,-2.33 6.41,-2.98 2.39,-0.64 4.77,-0.97 7.16,-0.97 2.78,0 5.45,0.31 8.01,0.93 2.56,0.62 4.84,1.63 6.82,3.02 1.99,1.39 3.57,3.17 4.74,5.33 1.16,2.16 1.75,4.79 1.75,7.87l-11.33 0c-0.1,-1.59 -0.44,-2.91 -1.01,-3.95 -0.57,-1.05 -1.33,-1.87 -2.27,-2.46 -0.95,-0.6 -2.04,-1.02 -3.28,-1.27 -1.24,-0.25 -2.56,-0.37 -3.95,-0.37 -0.95,0 -1.89,0.1 -2.83,0.29 -0.95,0.2 -1.81,0.55 -2.58,1.05 -0.77,0.5 -1.4,1.13 -1.9,1.9 -0.49,0.77 -0.74,1.7 -0.74,2.79 0,1.05 0.2,1.89 0.59,2.54 0.4,0.64 1.18,1.23 2.35,1.75 1.17,0.52 2.79,1.07 4.85,1.64 2.06,0.57 4.76,1.28 8.09,2.13 0.64,0.14 1.49,0.36 2.53,0.63 1.04,0.27 2.15,0.65 3.32,1.12 1.16,0.47 2.33,1.08 3.5,1.82 1.17,0.75 2.24,1.67 3.21,2.76 0.96,1.1 1.75,2.4 2.34,3.91 0.6,1.52 0.9,3.27 0.9,5.26 0,2.44 -0.47,4.7 -1.42,6.78 -0.94,2.09 -2.35,3.89 -4.21,5.41 -1.86,1.51 -4.17,2.71 -6.93,3.57 -2.76,0.87 -5.95,1.31 -9.58,1.31 -2.93,0 -5.78,-0.37 -8.54,-1.12 -2.75,-0.74 -5.18,-1.89 -7.26,-3.43 -2.09,-1.54 -3.77,-3.5 -5.04,-5.89 -1.26,-2.38 -1.87,-5.21 -1.82,-8.49l11.33 0zm-58.89 -2.91l13.79 0 -6.71 -19.53 -0.15 0 -6.93 19.53zm1.12 -32.65l12 0 19.9 53.22 -12.15 0 -4.02 -11.85 -19.91 0 -4.17 11.85 -11.85 0 20.2 -53.22zm-51.21 35.56c0,1.79 0.32,3.3 0.97,4.54 0.64,1.25 1.5,2.25 2.57,3.02 1.07,0.77 2.31,1.34 3.73,1.72 1.41,0.37 2.92,0.56 4.51,0.56 1.04,0 2.16,-0.09 3.35,-0.27 1.19,-0.17 2.31,-0.5 3.35,-1 1.05,-0.5 1.92,-1.18 2.61,-2.05 0.7,-0.87 1.05,-1.98 1.05,-3.32 0,-1.44 -0.46,-2.61 -1.38,-3.5 -0.92,-0.9 -2.13,-1.65 -3.62,-2.28 -1.49,-0.62 -3.18,-1.14 -5.07,-1.56 -1.88,-0.42 -3.8,-0.91 -5.74,-1.45 -1.98,-0.5 -3.92,-1.11 -5.81,-1.83 -1.89,-0.72 -3.58,-1.65 -5.07,-2.8 -1.49,-1.14 -2.7,-2.55 -3.62,-4.25 -0.91,-1.68 -1.37,-3.77 -1.37,-6.26 0,-2.73 0.58,-5.1 1.75,-7.12 1.17,-2.01 2.69,-3.69 4.58,-5.03 1.89,-1.34 4.03,-2.33 6.41,-2.98 2.39,-0.64 4.77,-0.97 7.16,-0.97 2.78,0 5.45,0.31 8.01,0.93 2.56,0.62 4.84,1.63 6.82,3.02 1.99,1.39 3.57,3.17 4.74,5.33 1.16,2.16 1.75,4.79 1.75,7.87l-11.33 0c-0.1,-1.59 -0.44,-2.91 -1.01,-3.95 -0.57,-1.05 -1.33,-1.87 -2.27,-2.46 -0.95,-0.6 -2.04,-1.02 -3.28,-1.27 -1.24,-0.25 -2.56,-0.37 -3.95,-0.37 -0.95,0 -1.89,0.1 -2.84,0.29 -0.94,0.2 -1.8,0.55 -2.57,1.05 -0.77,0.5 -1.4,1.13 -1.9,1.9 -0.49,0.77 -0.74,1.7 -0.74,2.79 0,1.05 0.2,1.89 0.59,2.54 0.4,0.64 1.18,1.23 2.35,1.75 1.17,0.52 2.78,1.07 4.85,1.64 2.06,0.57 4.76,1.28 8.08,2.13 0.65,0.14 1.5,0.36 2.54,0.63 1.04,0.27 2.15,0.65 3.32,1.12 1.16,0.47 2.33,1.08 3.5,1.82 1.17,0.75 2.24,1.67 3.21,2.76 0.97,1.1 1.75,2.4 2.34,3.91 0.6,1.52 0.9,3.27 0.9,5.26 0,2.44 -0.48,4.7 -1.42,6.78 -0.94,2.09 -2.35,3.89 -4.21,5.41 -1.86,1.51 -4.17,2.71 -6.93,3.57 -2.76,0.87 -5.95,1.31 -9.58,1.31 -2.93,0 -5.78,-0.37 -8.54,-1.12 -2.76,-0.74 -5.18,-1.89 -7.26,-3.43 -2.09,-1.54 -3.77,-3.5 -5.04,-5.89 -1.26,-2.38 -1.87,-5.21 -1.82,-8.49l11.33 0zm-14.32 -2.46c0,7.2 -2.01,12.57 -6.03,16.1 -4.03,3.53 -9.59,5.29 -16.7,5.29 -7.21,0 -12.78,-1.75 -16.73,-5.26 -3.95,-3.5 -5.93,-8.88 -5.93,-16.13l0 -33.1 11.7 0 0 33.1c0,1.44 0.13,2.85 0.37,4.25 0.25,1.39 0.77,2.63 1.57,3.72 0.8,1.1 1.9,1.97 3.32,2.61 1.41,0.65 3.31,0.97 5.7,0.97 4.17,0 7.06,-0.93 8.65,-2.79 1.59,-1.87 2.38,-4.79 2.38,-8.76l0 -33.1 11.7 0 0 33.1zm-83.56 -9.02l12.83 0c2.63,0 4.63,-0.6 6,-1.79 1.36,-1.2 2.05,-3.13 2.05,-5.82 0,-2.58 -0.69,-4.46 -2.05,-5.63 -1.37,-1.16 -3.37,-1.75 -6,-1.75l-12.83 0 0 14.99zm-11.7 -24.08l28.7 0c2.39,0 4.53,0.38 6.45,1.15 1.91,0.78 3.55,1.83 4.92,3.17 1.36,1.34 2.41,2.91 3.13,4.7 0.72,1.79 1.08,3.68 1.08,5.66 0,3.13 -0.66,5.84 -1.98,8.13 -1.31,2.29 -3.46,4.02 -6.44,5.22l0 0.15c1.44,0.4 2.63,1 3.57,1.82 0.95,0.82 1.72,1.8 2.31,2.95 0.6,1.14 1.04,2.37 1.31,3.69 0.27,1.31 0.46,2.64 0.56,3.99 0.05,0.84 0.1,1.83 0.15,2.98 0.05,1.14 0.13,2.3 0.26,3.46 0.12,1.17 0.32,2.3 0.59,3.39 0.28,1.1 0.69,2.02 1.24,2.76l-11.71 0c-0.35,-0.84 -0.61,-1.77 -0.78,-2.79 -0.18,-1.02 -0.32,-2.09 -0.45,-3.21 -0.12,-1.12 -0.22,-2.26 -0.3,-3.43 -0.07,-1.16 -0.18,-2.27 -0.33,-3.31 -0.4,-2.79 -1.24,-4.82 -2.54,-6.12 -1.29,-1.29 -3.4,-1.93 -6.33,-1.93l-11.71 0 0 20.79 -11.7 0 0 -53.22zm-34.29 25.05l9.1 0c1.34,0 2.63,-0.1 3.87,-0.3 1.24,-0.2 2.34,-0.59 3.28,-1.16 0.95,-0.57 1.7,-1.38 2.28,-2.42 0.57,-1.04 0.85,-2.41 0.85,-4.1 0,-1.69 -0.28,-3.06 -0.85,-4.1 -0.58,-1.04 -1.33,-1.85 -2.28,-2.42 -0.94,-0.57 -2.04,-0.96 -3.28,-1.16 -1.24,-0.2 -2.53,-0.3 -3.87,-0.3l-9.1 0 0 15.96zm-11.7 -25.05l24 0c3.33,0 6.16,0.48 8.5,1.45 2.33,0.97 4.24,2.25 5.7,3.84 1.47,1.59 2.54,3.42 3.21,5.48 0.67,2.06 1,4.16 1,6.3 0,2.19 -0.33,4.3 -1,6.34 -0.67,2.03 -1.74,3.85 -3.21,5.44 -1.46,1.59 -3.37,2.87 -5.7,3.84 -2.34,0.96 -5.17,1.45 -8.5,1.45l-12.3 0 0 19.08 -11.7 0 0 -53.22z"/>
 </g>
</svg>
