<?xml version="1.0" encoding="UTF-8" standalone="no"?>
<svg
   id="svg3128"
   width="705.80231"
   height="582.33624"
   viewBox="0 0 705.80233 582.33623"
   version="1.1"
   xml:space="preserve"
   xmlns="http://www.w3.org/2000/svg"
   xmlns:svg="http://www.w3.org/2000/svg"><defs
     id="defs119"><clipPath
       clipPathUnits="userSpaceOnUse"
       id="clipPath121"><path
         d="M 0,683.556 H 720.393 V 0 H 0 Z"
         transform="translate(-422.26871,-18.997898)"
         id="path121" /></clipPath><clipPath
       clipPathUnits="userSpaceOnUse"
       id="clipPath123"><path
         d="M 0,683.556 H 720.393 V 0 H 0 Z"
         transform="translate(-415.25041,-14.8056)"
         id="path123" /></clipPath><clipPath
       clipPathUnits="userSpaceOnUse"
       id="clipPath125"><path
         d="M 0,683.556 H 720.393 V 0 H 0 Z"
         transform="translate(-262.33801,-23.423903)"
         id="path125" /></clipPath><clipPath
       clipPathUnits="userSpaceOnUse"
       id="clipPath127"><path
         d="M 0,683.556 H 720.393 V 0 H 0 Z"
         transform="translate(-276.75361,-23.730301)"
         id="path127" /></clipPath><clipPath
       clipPathUnits="userSpaceOnUse"
       id="clipPath129"><path
         d="M 0,683.556 H 720.393 V 0 H 0 Z"
         transform="translate(-303.22041,-20.880601)"
         id="path129" /></clipPath><clipPath
       clipPathUnits="userSpaceOnUse"
       id="clipPath131"><path
         d="M 0,683.556 H 720.393 V 0 H 0 Z"
         transform="translate(-308.00361,-20.103398)"
         id="path131" /></clipPath><clipPath
       clipPathUnits="userSpaceOnUse"
       id="clipPath133"><path
         d="M 0,683.556 H 720.393 V 0 H 0 Z"
         transform="translate(-324.03941,-21.021803)"
         id="path133" /></clipPath><clipPath
       clipPathUnits="userSpaceOnUse"
       id="clipPath135"><path
         d="M 0,683.556 H 720.393 V 0 H 0 Z"
         transform="translate(-350.61111,-25.685003)"
         id="path135" /></clipPath><clipPath
       clipPathUnits="userSpaceOnUse"
       id="clipPath137"><path
         d="M 0,683.556 H 720.393 V 0 H 0 Z"
         transform="translate(-358.75971,-22.858898)"
         id="path137" /></clipPath><clipPath
       clipPathUnits="userSpaceOnUse"
       id="clipPath139"><path
         d="M 0,683.556 H 720.393 V 0 H 0 Z"
         transform="translate(-376.88051,-23.730301)"
         id="path139" /></clipPath><clipPath
       clipPathUnits="userSpaceOnUse"
       id="clipPath141"><path
         d="M 0,683.556 H 720.393 V 0 H 0 Z"
         transform="translate(-389.25391,-31.337401)"
         id="path141" /></clipPath><clipPath
       clipPathUnits="userSpaceOnUse"
       id="clipPath6"><path
         d="M 0,114.52 H 114.52 V 0 H 0 Z"
         transform="translate(-35.267201,-32.161503)"
         id="path6" /></clipPath><clipPath
       clipPathUnits="userSpaceOnUse"
       id="clipPath4"><path
         d="M 0,114.52 H 114.52 V 0 H 0 Z"
         transform="translate(-61.726601,-60.946602)"
         id="path4" /></clipPath><clipPath
       clipPathUnits="userSpaceOnUse"
       id="clipPath2"><path
         d="M 0,114.52 H 114.52 V 0 H 0 Z"
         transform="translate(-70.093402,-32.743901)"
         id="path2" /></clipPath><clipPath
       clipPathUnits="userSpaceOnUse"
       id="clipPath123-3"><path
         d="M 0,683.556 H 720.393 V 0 H 0 Z"
         transform="translate(-415.25041,-14.8056)"
         id="path123-1" /></clipPath></defs><line
     id="line2794"
     x1="0.69158316"
     y1="1.0052254"
     x2="0.69158316"
     y2="581.51392"
     style="fill:none;stroke:#ffffff;stroke-width:1.38249;stroke-linecap:round;stroke-linejoin:round;stroke-dasharray:none" /><line
     id="line2796"
     x1="142.39986"
     y1="1.040447"
     x2="142.39986"
     y2="581.33643"
     style="fill:none;stroke:#ffffff;stroke-width:1.38272px;stroke-linecap:round;stroke-linejoin:round" /><line
     id="line2798"
     x1="284.1944"
     y1="0.97073263"
     x2="284.1944"
     y2="517.37079"
     style="fill:none;stroke:#ffffff;stroke-width:1.30441px;stroke-linecap:round;stroke-linejoin:round" /><line
     id="line2800"
     x1="705.11115"
     y1="581.51416"
     x2="705.11115"
     y2="1.1717546"
     style="fill:none;stroke:#ffffff;stroke-width:1.38232px;stroke-linecap:round;stroke-linejoin:round" /><line
     id="line2802"
     x1="0.76483148"
     y1="574.50464"
     x2="254.98537"
     y2="574.50464"
     style="fill:none;stroke:#ffffff;stroke-width:1.48106;stroke-linecap:square;stroke-linejoin:round;stroke-miterlimit:4;stroke-dasharray:none" /><line
     id="line2802-8"
     x1="454.69971"
     y1="574.67969"
     x2="704.44983"
     y2="574.67969"
     style="fill:none;stroke:#ffffff;stroke-width:1.47086;stroke-linecap:square;stroke-linejoin:round;stroke-miterlimit:4;stroke-dasharray:none" /><line
     id="line2806"
     x1="1.1946371"
     y1="432.83392"
     x2="704.92871"
     y2="432.83392"
     style="fill:none;stroke:#ffffff;stroke-width:1.39558px;stroke-linecap:round;stroke-linejoin:round" /><line
     id="line2808"
     x1="1.1946371"
     y1="291.13284"
     x2="704.92871"
     y2="291.13284"
     style="fill:none;stroke:#ffffff;stroke-width:1.39558px;stroke-linecap:round;stroke-linejoin:round" /><line
     id="line2810"
     x1="1.1946371"
     y1="149.33176"
     x2="704.92871"
     y2="149.33176"
     style="fill:none;stroke:#ffffff;stroke-width:1.39558px;stroke-linecap:round;stroke-linejoin:round" /><line
     id="line2812"
     x1="1.1946371"
     y1="7.6306887"
     x2="704.92871"
     y2="7.6306887"
     style="fill:none;stroke:#ffffff;stroke-width:1.39558px;stroke-linecap:round;stroke-linejoin:round" /><line
     id="line2814"
     x1="704.92871"
     y1="0.69779003"
     x2="0.69779003"
     y2="0.69779003"
     style="fill:none;stroke:#ffffff;stroke-width:1.39558px;stroke-linecap:round;stroke-linejoin:round" /><line
     id="line2816"
     x1="425.92963"
     y1="1.0813043"
     x2="425.92963"
     y2="517.22998"
     style="fill:none;stroke:#ffffff;stroke-width:1.42464px;stroke-linecap:round;stroke-linejoin:round" /><line
     id="line2820"
     x1="567.64203"
     y1="1.198333"
     x2="567.64203"
     y2="580.63434"
     style="fill:none;stroke:#ffffff;stroke-width:1.50941px;stroke-linecap:round;stroke-linejoin:round" /><line
     id="line2826"
     x1="85.799797"
     y1="1.040447"
     x2="85.799797"
     y2="581.62915"
     style="fill:none;stroke:#ffffff;stroke-width:0.395059px;stroke-linecap:round;stroke-linejoin:round" /><line
     id="line2828"
     x1="114.09982"
     y1="1.040447"
     x2="114.09982"
     y2="581.62915"
     style="fill:none;stroke:#ffffff;stroke-width:0.395059px;stroke-linecap:round;stroke-linejoin:round" /><line
     id="line2830"
     x1="170.79985"
     y1="1.040447"
     x2="170.79985"
     y2="581.62915"
     style="fill:none;stroke:#ffffff;stroke-width:0.395059px;stroke-linecap:round;stroke-linejoin:round" /><line
     id="line2832"
     x1="199.0999"
     y1="1.040447"
     x2="199.0999"
     y2="581.62915"
     style="fill:none;stroke:#ffffff;stroke-width:0.395059px;stroke-linecap:round;stroke-linejoin:round" /><line
     id="line2834"
     x1="227.49991"
     y1="1.040447"
     x2="227.49991"
     y2="581.62915"
     style="fill:none;stroke:#ffffff;stroke-width:0.395059px;stroke-linecap:round;stroke-linejoin:round" /><line
     id="line2836"
     x1="255.80611"
     y1="1.0191121"
     x2="255.80611"
     y2="581.64233"
     style="fill:none;stroke:#ffffff;stroke-width:0.395059px;stroke-linecap:round;stroke-linejoin:round" /><line
     id="line2838"
     x1="312.47324"
     y1="0.98894"
     x2="312.47324"
     y2="517.65973"
     style="fill:none;stroke:#ffffff;stroke-width:0.37277px;stroke-linecap:round;stroke-linejoin:round" /><line
     id="line2840"
     x1="340.88708"
     y1="0.98894"
     x2="340.88708"
     y2="517.65973"
     style="fill:none;stroke:#ffffff;stroke-width:0.37277px;stroke-linecap:round;stroke-linejoin:round" /><line
     id="line2842"
     x1="681.00024"
     y1="1.040447"
     x2="681.00024"
     y2="581.62915"
     style="fill:none;stroke:#ffffff;stroke-width:0.395059px;stroke-linecap:round;stroke-linejoin:round" /><line
     id="line2844"
     x1="29.099754"
     y1="1.040447"
     x2="29.099754"
     y2="581.62915"
     style="fill:none;stroke:#ffffff;stroke-width:0.395059px;stroke-linecap:round;stroke-linejoin:round" /><line
     id="line2846"
     x1="57.399776"
     y1="1.040447"
     x2="57.399776"
     y2="581.62915"
     style="fill:none;stroke:#ffffff;stroke-width:0.395059px;stroke-linecap:round;stroke-linejoin:round" /><line
     id="line2848"
     x1="1.4993596"
     y1="461.13318"
     x2="705.31616"
     y2="461.13318"
     style="fill:none;stroke:#ffffff;stroke-width:0.398845px;stroke-linecap:round;stroke-linejoin:round" /><line
     id="line2850"
     x1="1.4993596"
     y1="489.53323"
     x2="705.31616"
     y2="489.53323"
     style="fill:none;stroke:#ffffff;stroke-width:0.398845px;stroke-linecap:round;stroke-linejoin:round" /><line
     id="line2852"
     x1="1.4993596"
     y1="517.83331"
     x2="705.31616"
     y2="517.83331"
     style="fill:none;stroke:#ffffff;stroke-width:0.398845px;stroke-linecap:round;stroke-linejoin:round" /><line
     id="line2854"
     x1="1.4994488"
     y1="546.26221"
     x2="255.71291"
     y2="546.26221"
     style="fill:none;stroke:#ffffff;stroke-width:0.239459px;stroke-linecap:round;stroke-linejoin:round" /><line
     id="line2854-9"
     x1="454.34674"
     y1="546.2608"
     x2="704.89508"
     y2="546.2608"
     style="fill:none;stroke:#ffffff;stroke-width:0.237745px;stroke-linecap:round;stroke-linejoin:round" /><line
     id="line2854-7"
     x1="1.241616"
     y1="581.63831"
     x2="704.92847"
     y2="581.63831"
     style="fill:none;stroke:#ffffff;stroke-width:1.39583;stroke-linecap:round;stroke-linejoin:round;stroke-dasharray:none" /><line
     id="line2856"
     x1="1.4993596"
     y1="404.43311"
     x2="705.31616"
     y2="404.43311"
     style="fill:none;stroke:#ffffff;stroke-width:0.398845px;stroke-linecap:round;stroke-linejoin:round" /><line
     id="line2858"
     x1="1.4993596"
     y1="376.13303"
     x2="705.31616"
     y2="376.13303"
     style="fill:none;stroke:#ffffff;stroke-width:0.398845px;stroke-linecap:round;stroke-linejoin:round" /><line
     id="line2860"
     x1="1.4993596"
     y1="347.73297"
     x2="705.31616"
     y2="347.73297"
     style="fill:none;stroke:#ffffff;stroke-width:0.398845px;stroke-linecap:round;stroke-linejoin:round" /><line
     id="line2862"
     x1="1.4993596"
     y1="319.43292"
     x2="705.31616"
     y2="319.43292"
     style="fill:none;stroke:#ffffff;stroke-width:0.398845px;stroke-linecap:round;stroke-linejoin:round" /><line
     id="line2864"
     x1="1.4993596"
     y1="262.73279"
     x2="705.31616"
     y2="262.73279"
     style="fill:none;stroke:#ffffff;stroke-width:0.398845px;stroke-linecap:round;stroke-linejoin:round" /><line
     id="line2866"
     x1="1.4993596"
     y1="234.33272"
     x2="705.31616"
     y2="234.33272"
     style="fill:none;stroke:#ffffff;stroke-width:0.398845px;stroke-linecap:round;stroke-linejoin:round" /><line
     id="line2868"
     x1="1.4993596"
     y1="206.03267"
     x2="705.31616"
     y2="206.03267"
     style="fill:none;stroke:#ffffff;stroke-width:0.398845px;stroke-linecap:round;stroke-linejoin:round" /><line
     id="line2870"
     x1="1.4993596"
     y1="177.7326"
     x2="705.31616"
     y2="177.7326"
     style="fill:none;stroke:#ffffff;stroke-width:0.398845px;stroke-linecap:round;stroke-linejoin:round" /><line
     id="line2872"
     x1="1.4993596"
     y1="121.03249"
     x2="705.31616"
     y2="121.03249"
     style="fill:none;stroke:#ffffff;stroke-width:0.398845px;stroke-linecap:round;stroke-linejoin:round" /><line
     id="line2874"
     x1="1.4993596"
     y1="92.632431"
     x2="705.31616"
     y2="92.632431"
     style="fill:none;stroke:#ffffff;stroke-width:0.398845px;stroke-linecap:round;stroke-linejoin:round" /><line
     id="line2876"
     x1="1.4993596"
     y1="64.332382"
     x2="705.31616"
     y2="64.332382"
     style="fill:none;stroke:#ffffff;stroke-width:0.398845px;stroke-linecap:round;stroke-linejoin:round" /><line
     id="line2878"
     x1="1.4993596"
     y1="35.932327"
     x2="705.31616"
     y2="35.932327"
     style="fill:none;stroke:#ffffff;stroke-width:0.398845px;stroke-linecap:round;stroke-linejoin:round" /><line
     id="line2880"
     x1="369.20102"
     y1="1.0100164"
     x2="369.20102"
     y2="517.6618"
     style="fill:none;stroke:#ffffff;stroke-width:0.398085px;stroke-linecap:round;stroke-linejoin:round" /><line
     id="line2884"
     x1="397.61444"
     y1="1.0220113"
     x2="397.61444"
     y2="517.72723"
     style="fill:none;stroke:#ffffff;stroke-width:0.407256px;stroke-linecap:round;stroke-linejoin:round" /><line
     id="line2888"
     x1="454.17535"
     y1="1.0131878"
     x2="454.17535"
     y2="581.49396"
     style="fill:none;stroke:#ffffff;stroke-width:0.431975;stroke-linecap:round;stroke-linejoin:round;stroke-dasharray:none" /><line
     id="line2892"
     x1="482.61795"
     y1="1.0739419"
     x2="482.61795"
     y2="581.26996"
     style="fill:none;stroke:#ffffff;stroke-width:0.431491px;stroke-linecap:round;stroke-linejoin:round" /><line
     id="line2896"
     x1="510.92355"
     y1="1.0739419"
     x2="510.92355"
     y2="581.26996"
     style="fill:none;stroke:#ffffff;stroke-width:0.431491px;stroke-linecap:round;stroke-linejoin:round" /><line
     id="line2900"
     x1="539.32935"
     y1="1.0739419"
     x2="539.32935"
     y2="581.26996"
     style="fill:none;stroke:#ffffff;stroke-width:0.431491px;stroke-linecap:round;stroke-linejoin:round" /><line
     id="line2904"
     x1="595.96283"
     y1="1.1090682"
     x2="595.96283"
     y2="581.19983"
     style="fill:none;stroke:#ffffff;stroke-width:0.43153px;stroke-linecap:round;stroke-linejoin:round" /><line
     id="line2906"
     x1="624.27881"
     y1="1.1090682"
     x2="624.27881"
     y2="581.19983"
     style="fill:none;stroke:#ffffff;stroke-width:0.43153px;stroke-linecap:round;stroke-linejoin:round" /><line
     id="line2908"
     x1="652.7002"
     y1="1.0677707"
     x2="652.7002"
     y2="581.34344"
     style="fill:none;stroke:#ffffff;stroke-width:0.421819px;stroke-linecap:round;stroke-linejoin:round" /><path
     id="path120"
     d="M 0,0 C 0.361,0.533 0.624,1.134 0.789,1.802 0.954,2.469 1.036,3.156 1.036,3.862 1.036,4.6 0.954,5.314 0.789,6.005 0.624,6.696 0.361,7.313 0,7.854 -0.361,8.396 -0.832,8.828 -1.413,9.15 -1.994,9.471 -2.701,9.632 -3.533,9.632 -4.365,9.632 -5.071,9.471 -5.652,9.15 -6.233,8.828 -6.704,8.396 -7.065,7.854 -7.427,7.313 -7.689,6.696 -7.854,6.005 -8.019,5.314 -8.102,4.6 -8.102,3.862 c 0,-0.706 0.083,-1.393 0.248,-2.06 0.165,-0.668 0.427,-1.269 0.789,-1.802 0.361,-0.534 0.832,-0.962 1.413,-1.284 0.581,-0.322 1.287,-0.482 2.119,-0.482 0.832,0 1.539,0.16 2.12,0.482 C -0.832,-0.962 -0.361,-0.534 0,0"
     style="fill:#ffffff;fill-opacity:1;fill-rule:nonzero;stroke:none"
     transform="matrix(0.91824614,0,0,-0.91824614,411.44812,536.34744)"
     clip-path="url(#clipPath121)" /><path
     id="path122"
     d="m 0,0 c -1.021,0.455 -1.884,1.075 -2.591,1.86 -0.706,0.786 -1.248,1.712 -1.625,2.78 -0.377,1.067 -0.565,2.205 -0.565,3.415 0,1.24 0.188,2.402 0.565,3.485 0.377,1.084 0.919,2.026 1.625,2.826 0.707,0.801 1.57,1.429 2.591,1.884 1.021,0.456 2.182,0.683 3.486,0.683 1.303,0 2.465,-0.227 3.485,-0.683 1.021,-0.455 1.884,-1.083 2.591,-1.884 0.707,-0.8 1.248,-1.742 1.625,-2.826 0.377,-1.083 0.565,-2.245 0.565,-3.485 0,-1.21 -0.188,-2.348 -0.565,-3.415 C 10.81,3.572 10.269,2.646 9.562,1.86 8.855,1.075 7.992,0.455 6.971,0 5.951,-0.455 4.789,-0.683 3.486,-0.683 2.182,-0.683 1.021,-0.455 0,0 M 17.014,16.533 24.032,5.252 h 0.047 v 11.281 h 3.462 V -0.283 H 23.844 L 16.849,10.975 H 16.802 V -0.283 H 13.34 v 16.816 z m 25.501,0 V 13.424 H 33.637 V 9.821 h 8.148 V 6.948 H 33.637 V 2.826 h 9.067 V -0.283 H 29.939 V 16.533 Z M 46.901,-0.89 v 18.028 c 0,1.869 -1.515,3.385 -3.385,3.385 H -5.593 c -1.87,0 -3.385,-1.516 -3.385,-3.385 V -0.89 c 0,-1.87 1.515,-3.386 3.385,-3.386 h 49.109 c 1.87,0 3.385,1.516 3.385,3.386"
     style="fill:#ffffff;fill-opacity:1;fill-rule:nonzero;stroke:none"
     transform="matrix(0.91824614,0,0,-0.91824614,405.00359,540.197)"
     clip-path="url(#clipPath123)" /><path
     id="path124"
     d="M 0,0 H 2.873 C 3.297,0 3.705,0.031 4.098,0.094 4.49,0.157 4.836,0.279 5.134,0.459 5.432,0.64 5.672,0.895 5.852,1.225 6.033,1.554 6.123,1.986 6.123,2.52 6.123,3.054 6.033,3.486 5.852,3.815 5.672,4.145 5.432,4.4 5.134,4.581 4.836,4.761 4.49,4.883 4.098,4.946 3.705,5.008 3.297,5.04 2.873,5.04 H 0 Z M -3.698,7.913 H 3.886 C 4.938,7.913 5.833,7.76 6.571,7.454 7.308,7.148 7.909,6.744 8.372,6.241 8.835,5.739 9.173,5.161 9.385,4.51 9.597,3.859 9.703,3.195 9.703,2.52 9.703,1.829 9.597,1.162 9.385,0.518 9.173,-0.126 8.835,-0.699 8.372,-1.201 7.909,-1.704 7.308,-2.108 6.571,-2.414 5.833,-2.72 4.938,-2.873 3.886,-2.873 H 0 v -6.029 h -3.698 z"
     style="fill:#ffffff;fill-opacity:1;fill-rule:nonzero;stroke:none"
     transform="matrix(0.91824614,0,0,-0.91824614,264.59237,532.28327)"
     clip-path="url(#clipPath125)" /><path
     id="path126"
     d="M 0,0 H 4.051 C 4.883,0 5.514,0.188 5.947,0.565 6.378,0.942 6.594,1.554 6.594,2.402 6.594,3.218 6.378,3.811 5.947,4.18 5.514,4.549 4.883,4.734 4.051,4.734 H 0 Z M -3.698,7.607 H 5.37 C 6.123,7.607 6.802,7.485 7.407,7.242 8.011,6.999 8.529,6.665 8.961,6.241 9.393,5.817 9.723,5.322 9.951,4.757 10.178,4.192 10.292,3.595 10.292,2.968 10.292,1.978 10.084,1.122 9.668,0.4 9.252,-0.322 8.573,-0.871 7.63,-1.248 v -0.047 c 0.456,-0.126 0.833,-0.318 1.131,-0.577 0.298,-0.259 0.542,-0.57 0.73,-0.931 0.189,-0.361 0.326,-0.75 0.412,-1.165 0.086,-0.417 0.145,-0.837 0.177,-1.261 0.015,-0.267 0.031,-0.581 0.047,-0.942 0.015,-0.361 0.043,-0.726 0.083,-1.095 0.039,-0.369 0.101,-0.726 0.188,-1.071 0.086,-0.346 0.216,-0.636 0.388,-0.872 H 7.089 C 6.979,-8.942 6.896,-8.648 6.842,-8.326 6.786,-8.004 6.739,-7.666 6.7,-7.313 6.661,-6.96 6.63,-6.599 6.606,-6.229 6.583,-5.861 6.547,-5.511 6.5,-5.181 6.374,-4.302 6.107,-3.659 5.699,-3.25 5.291,-2.842 4.624,-2.638 3.698,-2.638 H 0 v -6.571 h -3.698 z"
     style="fill:#ffffff;fill-opacity:1;fill-rule:nonzero;stroke:none"
     transform="matrix(0.91824614,0,0,-0.91824614,277.82944,532.00192)"
     clip-path="url(#clipPath127)" /><path
     id="path128"
     d="m 0,0 c 0,-2.277 -0.636,-3.973 -1.908,-5.087 -1.271,-1.115 -3.03,-1.672 -5.275,-1.672 -2.277,0 -4.039,0.553 -5.288,1.66 -1.248,1.107 -1.872,2.806 -1.872,5.099 v 10.457 h 3.698 V 0 c 0,-0.456 0.039,-0.903 0.118,-1.343 0.078,-0.439 0.243,-0.832 0.494,-1.177 0.251,-0.346 0.601,-0.62 1.048,-0.825 0.448,-0.204 1.048,-0.306 1.802,-0.306 1.319,0 2.229,0.295 2.732,0.884 0.502,0.588 0.753,1.511 0.753,2.767 V 10.457 H 0 Z"
     style="fill:#ffffff;fill-opacity:1;fill-rule:nonzero;stroke:none"
     transform="matrix(0.91824614,0,0,-0.91824614,302.13247,534.61865)"
     clip-path="url(#clipPath129)" /><path
     id="path130"
     d="m 0,0 c 0,-0.565 0.102,-1.045 0.306,-1.437 0.204,-0.392 0.475,-0.71 0.813,-0.954 0.337,-0.243 0.73,-0.424 1.177,-0.541 0.448,-0.118 0.923,-0.177 1.425,-0.177 0.33,0 0.683,0.027 1.06,0.083 0.377,0.054 0.73,0.16 1.06,0.317 0.33,0.157 0.604,0.373 0.824,0.648 0.22,0.275 0.33,0.624 0.33,1.048 0,0.456 -0.146,0.825 -0.436,1.107 C 6.268,0.377 5.888,0.616 5.417,0.812 4.946,1.008 4.412,1.174 3.815,1.307 3.219,1.44 2.614,1.593 2.002,1.766 1.374,1.923 0.762,2.116 0.165,2.343 -0.432,2.571 -0.966,2.865 -1.437,3.227 -1.908,3.588 -2.288,4.035 -2.579,4.569 -2.87,5.102 -3.015,5.762 -3.015,6.547 c 0,0.864 0.185,1.614 0.554,2.249 0.369,0.636 0.851,1.166 1.448,1.59 0.597,0.424 1.272,0.738 2.026,0.942 0.753,0.204 1.507,0.306 2.261,0.306 0.879,0 1.723,-0.098 2.531,-0.294 C 6.614,11.144 7.332,10.825 7.96,10.386 8.588,9.946 9.087,9.385 9.456,8.702 9.825,8.019 10.01,7.191 10.01,6.218 H 6.43 C 6.398,6.72 6.292,7.136 6.112,7.466 5.931,7.796 5.691,8.055 5.393,8.243 5.095,8.431 4.749,8.564 4.357,8.643 3.965,8.722 3.548,8.761 3.109,8.761 2.81,8.761 2.512,8.73 2.214,8.667 1.915,8.604 1.644,8.494 1.401,8.337 1.158,8.18 0.958,7.98 0.801,7.736 0.644,7.493 0.565,7.199 0.565,6.854 0.565,6.524 0.628,6.257 0.754,6.053 0.879,5.849 1.126,5.664 1.496,5.499 1.864,5.334 2.375,5.161 3.026,4.981 3.678,4.801 4.53,4.577 5.582,4.31 5.786,4.263 6.053,4.196 6.382,4.11 6.712,4.023 7.061,3.905 7.43,3.756 7.799,3.607 8.168,3.415 8.538,3.179 8.906,2.944 9.244,2.653 9.55,2.308 9.856,1.962 10.103,1.55 10.292,1.071 c 0.188,-0.478 0.283,-1.032 0.283,-1.66 0,-0.769 -0.15,-1.484 -0.448,-2.143 C 9.829,-3.391 9.385,-3.961 8.797,-4.44 8.208,-4.919 7.478,-5.295 6.606,-5.57 5.735,-5.844 4.726,-5.982 3.58,-5.982 c -0.927,0 -1.825,0.118 -2.697,0.353 -0.871,0.236 -1.637,0.597 -2.296,1.083 -0.66,0.487 -1.189,1.107 -1.59,1.861 -0.4,0.754 -0.593,1.649 -0.577,2.685 z"
     style="fill:#ffffff;fill-opacity:1;fill-rule:nonzero;stroke:none"
     transform="matrix(0.91824614,0,0,-0.91824614,306.52462,535.33231)"
     clip-path="url(#clipPath131)" /><path
     id="path132"
     d="M 0,0 H 4.357 L 2.237,6.171 H 2.19 Z M 0.353,10.316 H 4.145 L 10.434,-6.5 H 6.594 L 5.323,-2.755 H -0.966 L -2.284,-6.5 h -3.745 z"
     style="fill:#ffffff;fill-opacity:1;fill-rule:nonzero;stroke:none"
     transform="matrix(0.91824614,0,0,-0.91824614,321.24944,534.489)"
     clip-path="url(#clipPath133)" /><path
     id="path134"
     d="m 0,0 c -0.063,0.424 -0.204,0.813 -0.424,1.166 -0.22,0.353 -0.495,0.663 -0.824,0.93 -0.33,0.267 -0.703,0.475 -1.119,0.624 -0.416,0.149 -0.852,0.224 -1.307,0.224 -0.833,0 -1.539,-0.161 -2.12,-0.483 C -6.375,2.139 -6.846,1.708 -7.207,1.166 -7.568,0.624 -7.831,0.008 -7.996,-0.683 c -0.165,-0.691 -0.247,-1.405 -0.247,-2.143 0,-0.707 0.082,-1.394 0.247,-2.061 0.165,-0.667 0.428,-1.268 0.789,-1.801 0.361,-0.535 0.832,-0.963 1.413,-1.284 0.581,-0.322 1.287,-0.483 2.12,-0.483 1.13,0 2.014,0.349 2.65,1.048 0.635,0.698 1.024,1.605 1.165,2.72 h 3.58 C 3.627,-5.739 3.383,-6.688 2.991,-7.537 2.598,-8.384 2.08,-9.107 1.437,-9.703 0.793,-10.3 0.039,-10.759 -0.824,-11.081 c -0.864,-0.322 -1.814,-0.483 -2.85,-0.483 -1.303,0 -2.465,0.228 -3.486,0.683 -1.02,0.455 -1.884,1.076 -2.591,1.861 -0.706,0.785 -1.248,1.711 -1.624,2.779 -0.377,1.067 -0.566,2.206 -0.566,3.415 0,1.24 0.189,2.402 0.566,3.486 0.376,1.083 0.918,2.025 1.624,2.826 0.707,0.801 1.571,1.428 2.591,1.884 1.021,0.455 2.183,0.683 3.486,0.683 0.926,0 1.801,-0.134 2.626,-0.401 C -0.224,5.385 0.514,4.997 1.166,4.487 1.817,3.976 2.355,3.345 2.779,2.591 3.203,1.837 3.47,0.973 3.58,0 Z"
     style="fill:#ed6c21;fill-opacity:1;fill-rule:nonzero;stroke:none"
     transform="matrix(0.91824614,0,0,-0.91824614,345.6488,530.20702)"
     clip-path="url(#clipPath135)" /><path
     id="path136"
     d="m 0,0 c 0,-0.707 0.082,-1.394 0.247,-2.061 0.165,-0.667 0.428,-1.268 0.789,-1.801 0.361,-0.534 0.832,-0.962 1.413,-1.284 0.581,-0.322 1.287,-0.483 2.12,-0.483 0.832,0 1.539,0.161 2.12,0.483 0.58,0.322 1.051,0.75 1.413,1.284 0.361,0.533 0.624,1.134 0.789,1.801 C 9.055,-1.394 9.138,-0.707 9.138,0 9.138,0.738 9.055,1.452 8.891,2.143 8.726,2.834 8.463,3.45 8.102,3.992 7.74,4.534 7.269,4.965 6.689,5.287 6.108,5.609 5.401,5.77 4.569,5.77 3.736,5.77 3.03,5.609 2.449,5.287 1.868,4.965 1.397,4.534 1.036,3.992 0.675,3.45 0.412,2.834 0.247,2.143 0.082,1.452 0,0.738 0,0 m -3.697,0 c 0,1.24 0.188,2.402 0.565,3.486 0.377,1.083 0.918,2.025 1.625,2.826 0.706,0.801 1.57,1.428 2.59,1.884 1.021,0.455 2.183,0.683 3.486,0.683 1.303,0 2.465,-0.228 3.486,-0.683 C 9.075,7.74 9.939,7.113 10.645,6.312 11.352,5.511 11.894,4.569 12.27,3.486 12.647,2.402 12.836,1.24 12.836,0 12.836,-1.209 12.647,-2.348 12.27,-3.415 11.894,-4.483 11.352,-5.409 10.645,-6.194 9.939,-6.979 9.075,-7.599 8.055,-8.055 7.034,-8.51 5.872,-8.738 4.569,-8.738 c -1.303,0 -2.465,0.228 -3.486,0.683 -1.02,0.456 -1.884,1.076 -2.59,1.861 -0.707,0.785 -1.248,1.711 -1.625,2.779 -0.377,1.067 -0.565,2.206 -0.565,3.415"
     style="fill:#ed6c21;fill-opacity:1;fill-rule:nonzero;stroke:none"
     transform="matrix(0.91824614,0,0,-0.91824614,353.13122,532.80209)"
     clip-path="url(#clipPath137)" /><path
     id="path138"
     d="M 0,0 H 4.051 C 4.883,0 5.514,0.188 5.947,0.565 6.378,0.942 6.594,1.554 6.594,2.402 6.594,3.218 6.378,3.811 5.947,4.18 5.514,4.549 4.883,4.734 4.051,4.734 H 0 Z M -3.698,7.607 H 5.37 C 6.123,7.607 6.802,7.485 7.407,7.242 8.011,6.999 8.529,6.665 8.961,6.241 9.393,5.817 9.723,5.322 9.951,4.757 10.178,4.192 10.292,3.595 10.292,2.968 10.292,1.978 10.084,1.122 9.668,0.4 9.252,-0.322 8.573,-0.871 7.63,-1.248 v -0.047 c 0.456,-0.126 0.833,-0.318 1.131,-0.577 0.298,-0.259 0.542,-0.57 0.73,-0.931 0.189,-0.361 0.326,-0.75 0.412,-1.165 0.086,-0.417 0.145,-0.837 0.177,-1.261 0.015,-0.267 0.031,-0.581 0.047,-0.942 0.015,-0.361 0.043,-0.726 0.083,-1.095 0.039,-0.369 0.101,-0.726 0.188,-1.071 0.086,-0.346 0.216,-0.636 0.388,-0.872 H 7.089 C 6.979,-8.942 6.896,-8.648 6.842,-8.326 6.786,-8.004 6.739,-7.666 6.7,-7.313 6.661,-6.96 6.63,-6.599 6.606,-6.229 6.583,-5.861 6.547,-5.511 6.5,-5.181 6.374,-4.302 6.107,-3.659 5.699,-3.25 5.291,-2.842 4.624,-2.638 3.698,-2.638 H 0 v -6.571 h -3.698 z"
     style="fill:#ed6c21;fill-opacity:1;fill-rule:nonzero;stroke:none"
     transform="matrix(0.91824614,0,0,-0.91824614,369.77058,532.00192)"
     clip-path="url(#clipPath139)" /><path
     id="path140"
     d="M 0,0 H 12.577 V -3.109 H 3.698 v -3.603 h 8.148 V -9.585 H 3.698 v -4.122 h 9.067 v -3.109 H 0 Z"
     style="fill:#ed6c21;fill-opacity:1;fill-rule:nonzero;stroke:none"
     transform="matrix(0.91824614,0,0,-0.91824614,381.13241,525.01674)"
     clip-path="url(#clipPath141)" /><g
     transform="matrix(1.9175717,0,0,1.9175717,389.21896,579.63082)"
     id="g2"
     style="clip-rule:evenodd;fill-rule:evenodd;stroke-linejoin:round;stroke-miterlimit:2">&#10;                <path
   d="m 0,-16.736 -16.012,16.012 c -0.322,0.322 -0.094,0.874 0.362,0.874 h 2.927 c 0.281,0 0.521,-0.139 0.617,-0.235 L 4.719,-16.012 c 0.323,-0.322 0.094,-0.874 -0.362,-0.874 H 0.362 c -0.136,0 -0.266,0.054 -0.362,0.15"
   style="fill:#cb1a23;fill-opacity:1;fill-rule:nonzero"
   id="path1" />&#10;            </g><g
     transform="matrix(1.9175717,0,0,1.9175717,385.91882,573.08615)"
     id="g3"
     style="clip-rule:evenodd;fill-rule:evenodd;stroke-linejoin:round;stroke-miterlimit:2">&#10;                <path
   d="M 0,-2.597 -2.743,0 h 1.245 c 0.236,0 0.464,-0.091 0.636,-0.254 l 1.675,-1.585 z"
   style="fill:#3d7a3d;fill-opacity:1;fill-rule:nonzero"
   id="path2-4" />&#10;            </g><g
     transform="matrix(1.9175717,0,0,1.9175717,408.63207,565.2126)"
     id="g4"
     style="clip-rule:evenodd;fill-rule:evenodd;stroke-linejoin:round;stroke-miterlimit:2">&#10;                <path
   d="m 0,-9.367 h -1.648 c 0.258,0.539 0.097,1.11 -0.309,1.517 L -9.421,-0.785 -8.636,0 0.362,-8.518 C 0.685,-8.841 0.456,-9.367 0,-9.367"
   style="fill:#3d7a3d;fill-opacity:1;fill-rule:nonzero"
   id="path3" />&#10;            </g><g
     transform="matrix(1.9175717,0,0,1.9175717,403.11157,576.486)"
     id="g5"
     style="clip-rule:evenodd;fill-rule:evenodd;stroke-linejoin:round;stroke-miterlimit:2">&#10;                <path
   d="m 0,-15.246 h -1.572 c 0.227,0.525 0.092,1.112 -0.312,1.517 L -16.388,0 h 1.181 c 0.236,0 0.464,-0.091 0.636,-0.254 l 4.972,-4.706 -0.78,-0.728 2.473,-2.34 0.753,0.753 7.515,-7.114 C 0.685,-14.712 0.456,-15.246 0,-15.246"
   style="fill:#f19e0e;fill-opacity:1;fill-rule:nonzero"
   id="path4-4" />&#10;            </g><g
     transform="matrix(1.9175717,0,0,1.9175717,308.28477,572.42881)"
     id="g6"
     style="clip-rule:evenodd;fill-rule:evenodd;stroke-linejoin:round;stroke-miterlimit:2">&#10;                <path
   d="m 0,-10.766 v 10.597 c 0,0.282 -0.229,0.512 -0.512,0.512 h -2.825 c -0.283,0 -0.512,-0.23 -0.512,-0.512 v -7.159 c 0,-0.136 0.054,-0.267 0.15,-0.363 l 3.261,-3.257 C -0.276,-11.109 0,-10.995 0,-10.766"
   style="fill:#fffffc;fill-rule:nonzero"
   id="path5" />&#10;            </g><g
     transform="matrix(1.9175717,0,0,1.9175717,308.09302,553.90219)"
     id="g7"
     style="clip-rule:evenodd;fill-rule:evenodd;stroke-linejoin:round;stroke-miterlimit:2">&#10;                <path
   d="M 0,-2.898 -3.312,0.41 C -3.474,0.571 -3.749,0.457 -3.749,0.229 v -3.438 c 0,-0.143 0.116,-0.26 0.26,-0.26 h 3.253 c 0.298,0 0.447,0.361 0.236,0.571"
   style="fill:#fffffc;fill-rule:nonzero"
   id="path6-9" />&#10;            </g><g
     transform="matrix(1.9175717,0,0,1.9175717,337.81039,560.16843)"
     id="g8"
     style="clip-rule:evenodd;fill-rule:evenodd;stroke-linejoin:round;stroke-miterlimit:2">&#10;                <path
   d="m 0,0 v 6.224 c 0,0.283 -0.229,0.513 -0.512,0.513 h -2.825 c -0.283,0 -0.512,-0.23 -0.512,-0.513 V 0 c 0,-0.337 -0.058,-0.661 -0.165,-0.962 -0.29,-0.821 -0.94,-1.471 -1.76,-1.76 -0.301,-0.107 -0.625,-0.165 -0.962,-0.165 -0.337,0 -0.661,0.058 -0.962,0.165 -0.821,0.289 -1.471,0.939 -1.761,1.76 -0.106,0.301 -0.164,0.625 -0.164,0.962 v 6.224 c 0,0.283 -0.23,0.513 -0.512,0.513 h -2.825 c -0.283,0 -0.513,-0.23 -0.513,-0.513 V 0 c 0,-0.327 0.024,-0.648 0.069,-0.962 0.097,-0.68 0.296,-1.327 0.58,-1.925 0.322,-0.679 0.756,-1.296 1.276,-1.827 0.032,-0.033 0.065,-0.066 0.097,-0.098 0.531,-0.52 1.148,-0.953 1.828,-1.276 0.598,-0.284 1.245,-0.483 1.925,-0.58 0.314,-0.045 0.635,-0.069 0.962,-0.069 0.326,0 0.648,0.024 0.962,0.069 0.68,0.097 1.327,0.296 1.925,0.58 0.679,0.323 1.296,0.756 1.827,1.276 0.033,0.032 0.066,0.065 0.098,0.098 0.52,0.531 0.953,1.148 1.276,1.827 0.284,0.598 0.483,1.245 0.58,1.925 C -0.023,-0.648 0,-0.327 0,0"
   style="fill:#fffffc;fill-rule:nonzero"
   id="path7" />&#10;            </g><g
     transform="matrix(1.9175717,0,0,1.9175717,353.8459,547.25032)"
     id="g9"
     style="clip-rule:evenodd;fill-rule:evenodd;stroke-linejoin:round;stroke-miterlimit:2">&#10;                <path
   d="m 0,13.473 h -6.224 c -0.283,0 -0.513,-0.229 -0.513,-0.512 v -2.825 c 0,-0.283 0.23,-0.512 0.513,-0.512 H 0 c 0.337,0 0.661,-0.058 0.962,-0.165 0.821,-0.29 1.471,-0.94 1.76,-1.76 C 2.829,7.398 2.887,7.074 2.887,6.737 2.887,6.4 2.829,6.076 2.722,5.775 2.433,4.954 1.783,4.304 0.962,4.014 0.661,3.908 0.337,3.85 0,3.85 h -6.224 c -0.283,0 -0.513,-0.23 -0.513,-0.513 V 0.513 C -6.737,0.23 -6.507,0 -6.224,0 H 0 C 0.327,0 0.648,0.024 0.962,0.069 1.642,0.166 2.289,0.365 2.887,0.649 3.566,0.971 4.183,1.405 4.714,1.925 4.747,1.957 4.78,1.99 4.812,2.022 5.332,2.553 5.765,3.17 6.088,3.85 6.372,4.448 6.571,5.095 6.668,5.775 6.713,6.089 6.737,6.41 6.737,6.737 6.737,7.063 6.713,7.385 6.668,7.699 6.571,8.379 6.372,9.026 6.088,9.624 5.765,10.303 5.332,10.92 4.812,11.451 4.78,11.484 4.747,11.517 4.714,11.549 4.183,12.069 3.566,12.502 2.887,12.825 2.289,13.109 1.642,13.308 0.962,13.405 0.648,13.45 0.327,13.473 0,13.473"
   style="fill:#fffffc;fill-rule:nonzero"
   id="path8" />&#10;            </g><g
     transform="matrix(1.9175717,0,0,1.9175717,387.95048,573.08577)"
     id="g10"
     style="clip-rule:evenodd;fill-rule:evenodd;stroke-linejoin:round;stroke-miterlimit:2">&#10;                <path
   d="m 0,-6.255 -2.473,2.341 4.038,3.764 C 1.661,-0.054 1.791,0 1.927,0 h 3.092 c 0.456,0 0.684,-0.552 0.362,-0.874 z"
   style="fill:#fffffc;fill-rule:nonzero"
   id="path9" />&#10;            </g><g
     transform="matrix(1.9175717,0,0,1.9175717,380.58221,552.11616)"
     id="g11"
     style="clip-rule:evenodd;fill-rule:evenodd;stroke-linejoin:round;stroke-miterlimit:2">&#10;                <path
   d="m 0,0.838 -3.225,-3.225 c -0.096,-0.096 -0.227,-0.15 -0.362,-0.15 h -3.995 c -0.457,0 -0.685,0.551 -0.362,0.874 l 5.404,5.038 z"
   style="fill:#fffffc;fill-rule:nonzero"
   id="path10" />&#10;            </g></svg>
